<?xml version="1.0" encoding="utf-8"?>
<!-- Generator: Adobe Illustrator 24.1.1, SVG Export Plug-In . SVG Version: 6.00 Build 0)  -->
<svg version="1.1" id="Calque_1" xmlns="http://www.w3.org/2000/svg" xmlns:xlink="http://www.w3.org/1999/xlink" x="0px" y="0px"
	 viewBox="0 0 620.05 262" style="enable-background:new 0 0 620.05 262;" xml:space="preserve">
<style type="text/css">
	.st0{fill:#967BA0;}
</style>
<path class="st0" d="M310.03,262c0,0-55.15-67.1-82.21-91.1s-42.38-31.15-55.15-31.15s-37.28,11.74-37.28,11.74
	s-9.61-19.06-18.64-28.09c-5.87-5.87-15.51-8.53-26.55-10.72c-13.88-2.76-28.56,0.99-29.36,1.02c0,0-20.94-16.85-33.7-21.96
	S1.09,89.2,1.09,89.2s16.19-19.19,25.02-28.09c5.4-5.44,24.76-19.67,36.26-27.57c29.24-20.1,84.1-39.12,74.55-32.17
	c0,0,73.02,40.85,82.72,43.91c9.7,3.06,25.02,7.66,31.66,7.15c6.64-0.51,15.79-6.44,18.38-8.68c2.98-2.58,6.61-5.02,7.15-11.23
	l-3.57-31.15c0,0,7.15,7.15,11.74,8.68c4.6,1.53,38.3,3.57,43.4,2.04s16.85-10.72,16.85-10.72s-4.6,28.6-4.09,32.68
	c0.51,4.09,13.28,14.3,20.94,15.32c7.66,1.02,16.34,2.04,20.94,1.02c4.6-1.02,37.79-12.26,41.36-14.3s57.7-34.72,57.7-34.72
	s22.21,6.01,30,8.68c21.46,7.35,38.52,13.82,58.85,26.55c11.29,7.07,33.7,30.64,36.77,35.23c3.06,4.6,11.23,18.89,11.23,18.89
	s-11.23-1.53-21.45,3.57s-27.06,19.91-27.06,19.91s-28.09-1.53-35.23,0s-18.04,6.13-25.02,13.62c-5.99,6.43-10.72,16.51-11.74,20.6
	c-1.02,4.09-0.94,5.45-0.94,5.45s-13.36-15.66-28.17-15.15s-31.56,10.11-40.34,15.83C378.26,187.58,311.11,261.04,310.03,262z"/>
<path class="st0" d="M113.19,122.18"/>
</svg>
