<?xml version="1.0" encoding="iso-8859-1"?>
<!-- Generator: Adobe Illustrator 19.0.0, SVG Export Plug-In . SVG Version: 6.00 Build 0)  -->
<svg version="1.1" id="Capa_1" xmlns="http://www.w3.org/2000/svg" xmlns:xlink="http://www.w3.org/1999/xlink" x="0px" y="0px"
	 viewBox="0 0 512 512" style="enable-background:new 0 0 512 512;" xml:space="preserve">
<g>
	<g>
		<path d="M511.917,9.359c-0.667-5.344-5.188-9.354-10.573-9.354c-205.15,0-282.183,85.344-285.371,88.979
			c-3.167,3.625-3.521,8.917-0.854,12.927c2.667,4,7.656,5.729,12.261,4.208c0.229-0.094,24.615-7.823,38.782,2.375
			c7.417,5.354,11.177,15.5,11.177,30.177c0,17.427-8.479,27.302-25.219,29.365c-25.219,3.115-55.699-13.021-60.439-31.948
			c-1.313-5.24-6.354-8.771-11.646-8c-5.344,0.656-9.365,5.198-9.365,10.583v6.25c0,6.875-2.677,13.344-7.542,18.208
			c-4.865,4.865-11.334,7.542-18.209,7.542h-6.25c-5.386,0-9.927,4.021-10.584,9.365c-0.667,5.344,2.771,10.344,8,11.646
			c18.927,4.74,35.053,35.24,31.949,60.438c-2.063,16.74-11.938,25.219-29.365,25.219c-14.646,0-24.782-3.75-30.136-11.135
			c-8.542-11.781-4.636-32.042-2.406-38.854c1.5-4.563-0.24-9.583-4.25-12.229c-3.99-2.646-9.292-2.302-12.896,0.854
			C85.346,219.161,0,296.193,0,501.339c0,5.385,4.01,9.906,9.354,10.573c0.438,0.063,0.885,0.083,1.323,0.083
			c4.823,0,9.125-3.271,10.334-8.052c0.135-0.552,14.302-54.854,55.689-76.771c22.375-11.833,49.189-12.229,79.658-1.146
			c2.688,0.99,5.688,0.833,8.292-0.417c2.583-1.25,4.563-3.5,5.469-6.229c0.156-0.458,15.657-45.656,59.689-65.438
			c32.282-14.5,71.97-11.833,118.003,7.865c4,1.729,8.656,0.813,11.74-2.26c3.083-3.083,3.979-7.74,2.26-11.74
			c-19.667-45.906-22.344-85.521-7.958-117.771c19.584-43.917,65.095-59.76,65.553-59.917c2.719-0.927,4.969-2.906,6.208-5.49
			c1.24-2.594,1.406-5.573,0.417-8.271c-11.084-30.479-10.698-57.281,1.146-79.656c21.917-41.385,76.22-55.552,76.772-55.688
			C509.167,19.693,512.584,14.693,511.917,9.359z"/>
	</g>
</g>
<g>
</g>
<g>
</g>
<g>
</g>
<g>
</g>
<g>
</g>
<g>
</g>
<g>
</g>
<g>
</g>
<g>
</g>
<g>
</g>
<g>
</g>
<g>
</g>
<g>
</g>
<g>
</g>
<g>
</g>
</svg>
