<?xml version="1.0" encoding="utf-8"?>
<!-- Generator: Adobe Illustrator 24.1.1, SVG Export Plug-In . SVG Version: 6.00 Build 0)  -->
<svg version="1.1" id="Calque_1" xmlns="http://www.w3.org/2000/svg" xmlns:xlink="http://www.w3.org/1999/xlink" x="0px" y="0px"
	 viewBox="0 0 455.79 82.81" style="enable-background:new 0 0 455.79 82.81;" xml:space="preserve">
<style type="text/css">
	.st0{fill:#967BA0;}
</style>
<path class="st0" d="M455.38,0.55h-29.22c-0.23,0-0.41,0.19-0.41,0.41v42.13c0,0.37-0.45,0.56-0.71,0.29
	c-3.16-3.27-15.93-16.46-20.4-20.03c-5.11-4.09-14.89-13.19-21.96-17.7c-5.43-3.47-8.7-4.87-9.92-5.34
	c-0.27-0.1-0.55,0.09-0.56,0.38l-1.41,73.4c-0.01,0.42-0.57,0.56-0.77,0.2L328.57,0.77c-0.16-0.28-0.57-0.28-0.72,0l-42.03,76.59
	c-0.21,0.37-0.77,0.23-0.78-0.2l-0.66-76.73c0-0.2-0.14-0.37-0.34-0.41c-0.54-0.09-1.74-0.08-3.66,0.94
	c-2.72,1.45-15.23,12-19.15,15.66c-3.61,3.37-18.72,21.64-21.06,24.46c-0.16,0.2-0.45,0.2-0.62,0.01
	c-2.39-2.68-17.51-19.65-20.87-22.86c-3.47-3.31-17.61-16.78-19.03-18.14C199.56,0.04,199.47,0,199.36,0h-68.61
	c-0.23,0-0.41,0.18-0.41,0.41l-0.08,17.08c0,0.23,0.18,0.42,0.41,0.42h20.95c0.23,0,0.42,0.19,0.41,0.42l-0.49,58.66
	c0,0.43-0.57,0.57-0.78,0.19l-41.6-76.53c-0.16-0.29-0.56-0.29-0.72-0.01l-34.1,60.29c-0.24,0.42-0.86,0.16-0.76-0.3
	c3.59-15.74-8.46-21.92-11.38-23.16c-0.28-0.12-0.33-0.49-0.09-0.69C83.78,18.33,56.56,1.2,53.57,0.6c0,0-0.13-0.05-0.2-0.05H0.41
	c-0.35,0-0.54,0.41-0.32,0.68l6.48,7.71c0.06,0.07,0.1,0.17,0.1,0.27V81.5c0,0.23,0.17,0.41,0.4,0.41
	c3.71,0.08,32.23,0.63,41.13-0.01c9.53-0.68,12.26-2.38,14.98-4.09c1.72-1.08,3.58-2.15,4.71-2.8c0.35-0.2,0.74,0.16,0.58,0.53
	l-2.65,6.08c-0.12,0.27,0.08,0.58,0.38,0.58h20.88c0.17,0,0.32-0.1,0.38-0.25l4.21-10.01c0.06-0.15,0.22-0.25,0.38-0.25h31.15
	c0.14,0,0.28,0.07,0.35,0.2l6.23,10.12c0.08,0.12,0.21,0.2,0.35,0.2h43.27c0.23,0,0.41-0.19,0.41-0.41V18.32
	c0-0.23,0.19-0.41,0.41-0.41h19.6c0.23,0,0.41,0.19,0.41,0.41V81.8c0,0.23,0.19,0.41,0.41,0.41h20.96c0.23,0,0.41-0.19,0.41-0.41
	V46.13c0-0.37,0.44-0.56,0.7-0.3c2.17,2.13,20.94,28.59,22.79,28.59c2.04,0,18.67-23.34,21.74-27.04c0.25-0.3,0.73-0.12,0.73,0.27
	V81.8c0,0.23,0.19,0.41,0.41,0.41h43.22c0.17,0,0.32-0.1,0.38-0.26l3.88-9.33c0.06-0.15,0.21-0.25,0.37-0.26l34.17-0.67
	c0.17,0,0.32,0.1,0.39,0.25l4.21,10c0.06,0.15,0.22,0.25,0.38,0.25h42.54c0.23,0,0.41-0.19,0.41-0.41V42.29
	c0-0.35,0.41-0.55,0.68-0.32c4.93,4.26,35.03,30.26,38.47,32.45c3.74,2.38,10.55,7.07,13.28,7.79l2.2,0.58
	c0.26,0.07,0.52-0.13,0.52-0.4V9.57c0-0.11,0.04-0.22,0.12-0.29l8.02-8.02C455.93,0.99,455.75,0.55,455.38,0.55z M28.29,17.06
	c0,0,15.32-0.17,17.02,0c1.7,0.17,4,1.96,4.85,3.32s1.02,4.85,0.68,6.98c-0.34,2.13-1.7,4-5.02,4.6c-3.32,0.6-17.53,0-17.53,0V17.06
	z M46.76,64.29c-2.47,0.51-18.47,0-18.47,0V48.38c0,0,11.74-0.85,16.85,0c5.11,0.85,5.87,1.96,5.87,1.96
	C57.22,59.19,49.23,63.78,46.76,64.29z M99.44,53.48l9.02-16.68l8.51,16.68H99.44z M319.02,53.48l9.02-15.66l8.34,15.66H319.02z"/>
</svg>
