<svg width="300" height="53" viewBox="0 0 300 53" fill="none" xmlns="http://www.w3.org/2000/svg">
<g clip-path="url(#clip0)">
<path d="M257.945 51.476H270.968C279.007 51.476 285.518 51.268 291.269 46.8354C296.95 42.469 300 35.6121 300 26.7422C300 17.8746 296.95 10.9445 291.269 6.58041C285.242 1.93987 278.104 1.93986 268.823 1.93986H257.945V51.476ZM265.978 44.2033V9.14404H271.798C277.754 9.14404 282.329 9.35197 286.003 12.4C289.746 15.5874 291.614 20.3673 291.614 26.6713C291.614 32.9752 289.746 37.7576 286.003 40.945C282.468 43.9245 278.241 44.2009 272.771 44.2009H265.978V44.2033ZM212.765 1.93986V32.7697C212.765 46.1408 219.414 52.8039 233.067 52.8039C246.712 52.8039 253.432 46.1408 253.432 32.7697V1.93986H245.398V32.0088C245.398 40.9473 241.24 45.4485 233.067 45.4485C224.889 45.4485 220.73 40.945 220.73 32.0088V1.93986H212.765ZM205.736 51.476H214.254L190.286 0L166.303 51.4783H174.767L180.518 38.731H200.127L205.736 51.476ZM183.497 32.0088L188.556 20.717C189.109 19.4009 189.733 17.6005 190.357 15.1054C191.049 17.6005 191.673 19.4009 192.226 20.717L197.284 32.0088H183.497ZM149.449 26.1184V32.9067H161.365V33.6014C161.365 40.945 155.822 45.5879 146.539 45.5879C135.8 45.5879 128.25 38.034 128.25 26.7422C128.25 15.5874 135.87 8.17529 146.47 8.17529C151.666 8.17529 155.824 10.0466 159.146 13.9263L165.039 9.49373C160.259 3.67415 154.159 0.831699 146.331 0.831699C138.918 0.831699 132.265 3.39534 127.414 8.10677C122.426 12.9576 119.865 19.3301 119.865 26.8131C119.865 34.1566 122.426 40.8079 127.138 45.5902C131.918 50.4387 138.221 52.8062 146.331 52.8062C160.744 52.8062 169.193 44.8271 169.193 30.7637C169.193 29.6532 169.125 28.1291 169.054 26.1208H149.449V26.1184Z" fill="#967BA0"/>
<path d="M96.8488 29.3058H97.749L114.239 51.476H123.315L106.272 28.9585C113.755 28.0583 117.634 23.5548 117.634 15.5874C117.634 10.9445 115.834 7.06714 112.854 4.70907C109.804 2.35336 105.858 1.9375 100.523 1.9375H89.2997V51.476H96.8512V29.3058H96.8488V29.3058ZM97.3332 23.0704V8.86758H98.7887C105.995 8.86758 109.388 10.1837 109.388 16.2797C109.388 22.2387 105.856 23.0704 98.7887 23.0704H97.3332ZM77.5518 51.476H86.0744L62.1015 0L38.119 51.476H46.5826L52.3337 38.7287H71.9402L77.5518 51.476ZM55.3132 32.0088L60.3719 20.717C60.9272 19.4009 61.5509 17.6005 62.1724 15.1054C62.8647 17.6005 63.4884 19.4009 64.0437 20.717L69.1025 32.0088H55.3132V32.0088ZM0 51.476H13.0261C21.062 51.476 27.5762 51.268 33.3273 46.8354C39.0075 42.469 42.0555 35.6121 42.0555 26.7422C42.0555 17.8746 39.0075 10.9445 33.3273 6.58041C27.2998 1.93987 20.1641 1.93986 10.8807 1.93986H0.0023615V51.476H0V51.476ZM8.03825 44.2033V9.14404H13.8578C19.8168 9.14404 24.3888 9.35196 28.0606 12.4C31.8009 15.5874 33.6723 20.3673 33.6723 26.6713C33.6723 32.9752 31.8009 37.7575 28.0606 40.945C24.5259 43.9245 20.3012 44.2009 14.8266 44.2009H8.03825V44.2033V44.2033Z" fill="#967BA0"/>
</g>
<defs>
<clipPath id="clip0">
<rect width="300" height="52.8062" fill="white"/>
</clipPath>
</defs>
</svg>
