<svg width="300" height="300" viewBox="0 0 300 300" fill="none" xmlns="http://www.w3.org/2000/svg">
<path d="M150.003 0C150.002 0 144.141 8.78906 144.141 8.78906L150 17.5781C193.218 17.5781 231.595 38.284 255.765 70.3125H176.373L158.795 87.8906V212.109L176.373 229.688H255.765C231.595 261.716 193.219 282.422 150.003 282.422C150.002 282.422 144.141 291.211 144.141 291.211L150 300C232.846 300 300 232.843 300 150C300 67.1572 232.846 0 150.003 0ZM229.107 176.953V194.531H202.74V105.469H229.107V123.047H264.264L268.945 91.7473C277.571 109.328 282.422 129.096 282.422 150C282.422 174.429 275.8 197.308 264.264 216.953V176.953H229.107Z"/>
<path d="M150 17.5781V0C67.159 0.00175781 0 67.1584 0 150C0 232.842 67.159 299.998 150 300V282.422C106.785 282.421 68.4076 261.715 44.2377 229.688H123.633L141.211 212.109V87.8906L123.633 70.3125H44.2377C68.4076 38.2846 106.785 17.5793 150 17.5781ZM79.6875 96.6797H106.055V203.32H79.6875V96.6797ZM43.9453 114.844V229.307C27.3867 207.2 17.5781 179.746 17.5781 150C17.5781 131.832 21.2402 114.521 27.8607 98.7592L43.9453 114.844Z"/>
</svg>
